{"title":"The Manchurian Candidate-720p MP4 AAC x264 BRRip 1962-CC","uid":7565353,"size":3035035690,"categoryP":"video","categoryS":"hd___movies","magnet":"?xt=urn:btih:d6298d1ce19ed107932b7fe98088bc5ef5013ec5&amp;dn=The+Manchurian+Candidate-720p+MP4+AAC+x264+BRRip+1962-CC&amp;tr=udp%3A%2F%2Ftracker.openbittorrent.com%3A80&amp;tr=udp%3A%2F%2Fopen.demonii.com%3A1337&amp;tr=udp%3A%2F%2Ftracker.coppersurfer.tk%3A6969&amp;tr=udp%3A%2F%2Fexodus.desync.com%3A6969","seeders":0,"leechers":0,"uploader":"Caveman44","files":-1,"time":1345847811,"description":" &lt;a href=&quot;http://www.imdb.com/title/tt0056218/&quot; rel=&quot;nofollow&quot; target=&quot;_NEW&quot;&gt;http://www.imdb.com/title/tt0056218/&lt;/a&gt;\n\nSource: The.Manchurian.Candidate.1962.720p.BluRay.X264-AMIABLE Thanks!\n\nSubs: Dutch, English, French, Servian and Spanish.\n\nSample and Screens included.\n\nGeneral\nComplete name                    : The Manchurian Candidate-720p MP4 AAC x264 BRRip 1962-CC.mp4\nFormat                           : MPEG-4\nFormat profile                   : Base Media\nCodec ID                         : isom\nFile size                        : 2.80 GiB\nDuration                         : 2h 6mn\nOverall bit rate                 : 3 163 Kbps\nEncoded date                     : UTC 2012-08-15 13:15:27\n\nVideo\nID                               : 1\nFormat                           : AVC\nFormat/Info                      : Advanced Video Codec\nFormat profile                   : &lt;a class=&quot;__cf_email__&quot; href=&quot;/cdn-cgi/l/email-protection&quot; data-cfemail=&quot;d59dbcb2bd9599e6fbe7&quot;&gt;[email&amp;#160;protected]&lt;/a&gt;&lt;script data-cfhash='f9e31' type=&quot;text/javascript&quot;&gt;\n/* &lt;![CDATA[ */!function(){try{var t=&quot;currentScript&quot;in document?document.currentScript:function(){for(var t=document.getElementsByTagName(&quot;script&quot;),e=t.length;e--;)if(t[e].getAttribute(&quot;data-cfhash&quot;))return t[e]}();if(t&amp;&amp;t.previousSibling){var e,r,n,i,c=t.previousSibling,a=c.getAttribute(&quot;data-cfemail&quot;);if(a){for(e=&quot;&quot;,r=parseInt(a.substr(0,2),16),n=2;a.length-n;n+=2)i=parseInt(a.substr(n,2),16)^r,e+=String.fromCharCode(i);e=document.createTextNode(e),c.parentNode.replaceChild(e,c)}t.parentNode.removeChild(t);}}catch(u){}}()/* ]]&gt; */&lt;/script&gt;\nFormat settings, CABAC           : Yes\nFormat settings, ReFrames        : 5 frames\nCodec ID                         : avc1\nCodec ID/Info                    : Advanced Video Coding\nDuration                         : 2h 6mn\nBit rate mode                    : Variable\nBit rate                         : 2 827 Kbps\nMaximum bit rate                 : 9 068 Kbps\nWidth                            : 1 280 pixels\nHeight                           : 736 pixels\nDisplay aspect ratio             : 16:9\nFrame rate mode                  : Variable\nFrame rate                       : 23.976 fps\nMinimum frame rate               : 23.256 fps\nMaximum frame rate               : 25.000 fps\nResolution                       : 24 bits\nColorimetry                      : 4:2:0\nScan type                        : Progressive\nBits/(Pixel*Frame)               : 0.125\nStream size                      : 2.49 GiB (89%)\nWriting library                  : x264 core 112\n\nAudio\nID                               : 2\nFormat                           : AAC\nFormat/Info                      : Advanced Audio Codec\nFormat version                   : Version 4\nFormat profile                   : LC\nFormat settings, SBR             : No\nCodec ID                         : 40\nDuration                         : 2h 6mn\nBit rate mode                    : Variable\nBit rate                         : 336 Kbps\nMaximum bit rate                 : 623 Kbps\nChannel(s)                       : 6 channels\nChannel positions                : Front: L C R, Rear: L R, LFE\nSampling rate                    : 48.0 KHz\nResolution                       : 16 bits\nStream size                      : 304 MiB (11%)\nLanguage                         : English\n\nEnjoy..\n\nRequested by varuneric.\n\nComing up: The Bourne Trilogy, French Connection Duology, The Recruit, United 93, Executive Decision and more...","torrent":{"xt":"urn:btih:d6298d1ce19ed107932b7fe98088bc5ef5013ec5","amp;dn":"The+Manchurian+Candidate-720p+MP4+AAC+x264+BRRip+1962-CC","amp;tr":["udp%3A%2F%2Ftracker.openbittorrent.com%3A80","udp%3A%2F%2Fopen.demonii.com%3A1337","udp%3A%2F%2Ftracker.coppersurfer.tk%3A6969","udp%3A%2F%2Fexodus.desync.com%3A6969"],"infoHash":"d6298d1ce19ed107932b7fe98088bc5ef5013ec5","infoHashBuffer":{"type":"Buffer","data":[214,41,141,28,225,158,209,7,147,43,127,233,128,136,188,94,245,1,62,197]},"announce":[],"urlList":[]}}